<svg width="31" height="33" viewBox="0 0 31 33" fill="none" xmlns="http://www.w3.org/2000/svg">
<path d="M2 8.42308H29.6923M10.0769 8.42308V7.26923C10.0769 5.73914 10.6848 4.27171 11.7667 3.18977C12.8486 2.10783 14.3161 1.5 15.8462 1.5C17.3763 1.5 18.8437 2.10783 19.9256 3.18977C21.0076 4.27171 21.6154 5.73914 21.6154 7.26923V8.42308M12.3846 15.3485V24.5838M19.3077 15.3485V24.5838M5.46154 8.42308H26.2308V29.1923C26.2308 29.8043 25.9876 30.3913 25.5549 30.8241C25.1221 31.2569 24.5351 31.5 23.9231 31.5H7.76923C7.15719 31.5 6.57022 31.2569 6.13745 30.8241C5.70467 30.3913 5.46154 29.8043 5.46154 29.1923V8.42308Z" stroke="white" stroke-width="2.57143" stroke-linecap="round" stroke-linejoin="round"/>
</svg>
