<svg width="34" height="34" viewBox="0 0 34 34" fill="none" xmlns="http://www.w3.org/2000/svg">
<path d="M14.2825 5.56762H5.4717C4.537 5.56762 3.64057 5.93893 2.97964 6.59987C2.3187 7.26081 1.94739 8.15723 1.94739 9.09194V28.4757C1.94739 29.4104 2.3187 30.3068 2.97964 30.9678C3.64057 31.6287 4.537 32 5.4717 32H24.8554C25.7902 32 26.6866 31.6287 27.3475 30.9678C28.0085 30.3068 28.3798 29.4104 28.3798 28.4757V19.6649M25.8881 3.07593C26.2132 2.73932 26.6021 2.47083 27.032 2.28613C27.462 2.10142 27.9245 2.0042 28.3924 2.00013C28.8604 1.99607 29.3245 2.08524 29.7576 2.26244C30.1907 2.43965 30.5842 2.70134 30.9151 3.03225C31.246 3.36316 31.5077 3.75665 31.6849 4.18978C31.8621 4.6229 31.9513 5.08699 31.9473 5.55494C31.9432 6.0229 31.846 6.48536 31.6613 6.91534C31.4766 7.34532 31.2081 7.73421 30.8715 8.05932L15.7416 23.1892H10.7582V18.2058L25.8881 3.07593Z" stroke="black" stroke-width="3" stroke-linecap="round" stroke-linejoin="round"/>
</svg>
