<svg width="25" height="25" viewBox="0 0 25 25" fill="none" xmlns="http://www.w3.org/2000/svg">
<path d="M21.0696 12.3299C21.073 13.6497 20.7646 14.9517 20.1696 16.1299C19.464 17.5416 18.3793 18.729 17.037 19.5591C15.6947 20.3893 14.1478 20.8293 12.5696 20.8299C11.2497 20.8333 9.9477 20.5249 8.76958 19.9299L3.06958 21.8299L4.96958 16.1299C4.37451 14.9517 4.06614 13.6497 4.06958 12.3299C4.07019 10.7516 4.51019 9.20471 5.3403 7.86241C6.17041 6.52011 7.35783 5.43543 8.76958 4.72986C9.9477 4.13479 11.2497 3.82642 12.5696 3.82986H13.0696C15.1539 3.94485 17.1226 4.82462 18.5987 6.30072C20.0748 7.77682 20.9546 9.74551 21.0696 11.8299V12.3299Z" stroke="black" stroke-width="2" stroke-linecap="round" stroke-linejoin="round"/>
</svg>
