<svg width="25" height="25" viewBox="0 0 25 25" fill="none" xmlns="http://www.w3.org/2000/svg">
<path d="M19.806 11.408H5.80603C4.70146 11.408 3.80603 12.3034 3.80603 13.408V20.408C3.80603 21.5125 4.70146 22.408 5.80603 22.408H19.806C20.9106 22.408 21.806 21.5125 21.806 20.408V13.408C21.806 12.3034 20.9106 11.408 19.806 11.408Z" stroke="white" stroke-width="2" stroke-linecap="round" stroke-linejoin="round"/>
<path d="M7.80603 11.408V7.40796C7.80603 6.08188 8.33281 4.81011 9.2705 3.87243C10.2082 2.93474 11.4799 2.40796 12.806 2.40796C14.1321 2.40796 15.4039 2.93474 16.3416 3.87243C17.2792 4.81011 17.806 6.08188 17.806 7.40796V11.408" stroke="white" stroke-width="2" stroke-linecap="round" stroke-linejoin="round"/>
</svg>
