<?xml version="1.0" encoding="UTF-8"?>
<svg xmlns="http://www.w3.org/2000/svg" viewBox="0 0 500 500">
  <defs>
    <style>
      .cls-1, .cls-2, .cls-3, .cls-4, .cls-5, .cls-6, .cls-7, .cls-8, .cls-9, .cls-10, .cls-11 {
        stroke: #000;
      }

      .cls-1, .cls-2, .cls-3, .cls-6, .cls-7, .cls-8, .cls-9, .cls-10, .cls-12, .cls-13, .cls-11 {
        stroke-width: .75px;
      }

      .cls-1, .cls-2, .cls-10 {
        stroke-miterlimit: 10;
      }

      .cls-1, .cls-14, .cls-9 {
        fill: #d4d4d4;
      }

      .cls-2, .cls-4, .cls-6, .cls-7, .cls-15 {
        fill: #fff;
      }

      .cls-16, .cls-17, .cls-15, .cls-14, .cls-18 {
        stroke-width: 0px;
      }

      .cls-3, .cls-4, .cls-5, .cls-6, .cls-7, .cls-8, .cls-9, .cls-12, .cls-19, .cls-13, .cls-11 {
        stroke-linecap: round;
        stroke-linejoin: round;
      }

      .cls-3, .cls-17, .cls-5, .cls-12, .cls-19, .cls-13 {
        fill: none;
      }

      .cls-17 {
        opacity: 0;
      }

      .cls-7 {
        fill-rule: evenodd;
      }

      .cls-10, .cls-18 {
        fill: #ed5d1c;
      }

      .cls-12 {
        stroke: #d4d4d4;
      }

      .cls-19 {
        stroke: #ed5d1c;
      }

      .cls-13 {
        stroke: #fff;
      }

      .cls-11 {
        fill: #fafafa;
      }
    </style>
  </defs>
  <g id="BACKGROUND">
    <rect class="cls-17" width="500" height="500"/>
  </g>
  <g id="OBJECTS">
    <g>
      <g>
        <path class="cls-16" d="m189.39,342.06s-103.14,8.6-132.31-43.63c-29.17-52.23-7.54-93.67,16.53-112.88,24.07-19.21,61.16-11.94,79.23-61.65,18.07-49.71,71.79-75.86,126.13-66.26,54.34,9.6,71.83,42.35,65.5,81.29-6.33,38.94-5.28,56.41,35.63,65.56,40.91,9.15,54.88,96.61-2.87,128.21-57.75,31.59-118.26,20.79-133.45,16.26-15.2-4.54-38.52-7.38-54.38-6.87Z"/>
        <path class="cls-16" d="m377.16,112.64c-5.73,1.38-18.31-.87-21.95-13.86-5-17.86,17.24-26.05,28.3-16.51,11.05,9.55,7.8,26.94-6.35,30.36Z"/>
      </g>
      <g>
        <polygon class="cls-15" points="121.26 178.45 135.03 187.45 140.77 171.03 140.42 189.13 158.37 187.18 142.73 195 150.48 211.43 139.24 198.81 132.94 213.84 133.01 198.32 119.67 205.36 130.19 194.44 117.95 191.29 130.97 191.16 121.26 178.45"/>
        <polygon class="cls-15" points="178.01 123.6 188.1 130.18 192.3 118.17 192.04 131.42 205.18 129.99 193.73 135.71 199.4 147.74 191.17 138.5 186.56 149.5 186.61 138.14 176.85 143.29 184.55 135.3 175.59 133 185.12 132.9 178.01 123.6"/>
        <polygon class="cls-15" points="266.73 231.63 281.71 241.41 287.94 223.57 287.56 243.24 307.07 241.12 290.07 249.62 298.49 267.48 286.28 253.76 279.43 270.09 279.5 253.23 265.01 260.88 276.44 249.02 263.14 245.59 277.29 245.45 266.73 231.63"/>
        <polygon class="cls-15" points="233.25 186.53 239.32 190.5 241.84 183.27 241.69 191.24 249.6 190.38 242.71 193.82 246.12 201.06 241.17 195.5 238.39 202.12 238.42 195.29 232.55 198.39 237.18 193.58 231.79 192.19 237.53 192.13 233.25 186.53"/>
        <polygon class="cls-15" points="229.92 78.78 241.19 86.14 245.89 72.71 245.6 87.52 260.28 85.92 247.49 92.32 253.83 105.76 244.63 95.44 239.48 107.72 239.53 95.03 228.63 100.79 237.23 91.86 227.22 89.29 237.87 89.18 229.92 78.78"/>
      </g>
      <g>
        <path class="cls-15" d="m328.54,220.99c0,1.4-1.14,2.54-2.54,2.54s-2.54-1.14-2.54-2.54,1.14-2.54,2.54-2.54,2.54,1.14,2.54,2.54Z"/>
        <path class="cls-15" d="m131.94,236.52c0,1.45-1.17,2.62-2.62,2.62s-2.62-1.17-2.62-2.62,1.17-2.62,2.62-2.62,2.62,1.17,2.62,2.62Z"/>
        <circle class="cls-15" cx="80.64" cy="201.01" r="1.1"/>
        <path class="cls-15" d="m61.64,249.63c0,.66-.53,1.19-1.19,1.19s-1.19-.53-1.19-1.19.53-1.19,1.19-1.19,1.19.53,1.19,1.19Z"/>
        <path class="cls-15" d="m177.05,169.31c0,1.6-1.3,2.89-2.89,2.89s-2.89-1.3-2.89-2.89,1.3-2.89,2.89-2.89,2.89,1.3,2.89,2.89Z"/>
        <path class="cls-15" d="m232.68,140.42c0,.65-.53,1.17-1.17,1.17s-1.17-.53-1.17-1.17.53-1.17,1.17-1.17,1.17.53,1.17,1.17Z"/>
        <path class="cls-15" d="m201.77,87.75c0,.77-.63,1.4-1.4,1.4s-1.4-.63-1.4-1.4.63-1.4,1.4-1.4,1.4.63,1.4,1.4Z"/>
        <path class="cls-15" d="m293.83,79.81c0,2.41-1.95,4.36-4.36,4.36s-4.36-1.95-4.36-4.36,1.95-4.36,4.36-4.36,4.36,1.95,4.36,4.36Z"/>
        <path class="cls-15" d="m348.31,260.35c0,2.3-1.86,4.16-4.16,4.16s-4.16-1.86-4.16-4.16,1.86-4.16,4.16-4.16,4.16,1.86,4.16,4.16Z"/>
      </g>
    </g>
    <g>
      <g>
        <polygon class="cls-3" points="209.35 450.25 118.29 448.9 137.95 396.94 223.78 397.17 209.35 450.25"/>
        <g>
          <path class="cls-12" d="m210.76,402.72c-1.62,1.3-3.35,2.8-3.62,4.85-.23,1.8.75,3.62.37,5.4-.31,1.45-1.46,2.55-2.46,3.64-2.08,2.27-3.79,5.11-3.77,8.19.01,2.59,1.23,5.26.3,7.67-.95,2.47-3.88,3.82-4.66,6.35-.57,1.86.15,4.02-.76,5.74"/>
          <path class="cls-12" d="m193.35,408.09c-2.15,1.93-3.22,4.99-2.74,7.84.29,1.75,1.12,3.44.99,5.22-.3,3.89-5.06,6.4-5.11,10.31-.01,1.16.41,2.28.42,3.44.01,1.59-.74,3.07-1.48,4.47"/>
          <path class="cls-12" d="m173.35,401.32c.36,2.18-.83,4.27-1.89,6.2-.81,1.46-1.57,2.96-2.28,4.47-.4.86-.8,1.78-.74,2.73.06.9.52,1.71.73,2.59.53,2.3-.76,4.59-2,6.6-.93,1.51-1.86,3.02-2.8,4.54-.76,1.23-1.53,2.8-.78,4.03"/>
          <path class="cls-12" d="m181.4,409.53c-.62.92-1.15,1.89-1.61,2.9-.38.85-.71,1.78-.54,2.69.11.58.4,1.11.6,1.66.37,1.04.37,2.2.02,3.24-.52,1.51-1.75,2.74-2.03,4.3"/>
        </g>
      </g>
      <g>
        <path class="cls-8" d="m100.85,418.04h0c-.54-4.13.21-8.1,1.91-8.32l44.67-5.41c1.69-.22,3.5,2.95,4.05,7.08h0c.54,4.13-.36,8.3-2.06,8.52l-44.52,5.21c-1.69.22-3.5-2.95-4.05-7.08Z"/>
        <rect class="cls-9" x="106.39" y="413.64" width="15.89" height="5.15" transform="translate(512.13 248.69) rotate(82.52)"/>
        <g>
          <path class="cls-15" d="m148.21,404.28l16.5,5.45-14.61,9.9c-.39.26-.88-.52-1.01-1.61l-1.45-12.02c-.13-1.05.15-1.87.57-1.72Z"/>
          <polygon class="cls-16" points="156.01 407.11 157.04 414.93 164.71 409.73 156.01 407.11"/>
          <path class="cls-3" d="m148.21,404.28l16.5,5.45-14.61,9.9c-.39.26-.88-.52-1.01-1.61l-1.45-12.02c-.13-1.05.15-1.87.57-1.72Z"/>
        </g>
        <path class="cls-6" d="m108.91,408.92l-7.63,1c-2.14.28-3.42,4.03-2.85,8.37h0c.57,4.34,2.77,7.63,4.91,7.35l7.64-.91-2.07-15.8Z"/>
        <rect class="cls-9" x="101.36" y="414.38" width="15.89" height="5" transform="translate(508.41 254.25) rotate(82.52)"/>
      </g>
      <g>
        <polygon class="cls-6" points="333.92 402.49 182.56 402.49 195.92 363.93 346.65 364.34 333.92 402.49"/>
        <g>
          <line class="cls-3" x1="200.03" y1="372.17" x2="317.01" y2="372.17"/>
          <line class="cls-3" x1="200.03" y1="380.64" x2="327.96" y2="380.64"/>
          <line class="cls-3" x1="195.35" y1="391.28" x2="331.85" y2="391.28"/>
          <line class="cls-3" x1="210.76" y1="366.97" x2="203.23" y2="398.89"/>
          <line class="cls-3" x1="226.6" y1="366.35" x2="221.32" y2="398.89"/>
          <line class="cls-3" x1="242.09" y1="366.97" x2="239.33" y2="398.18"/>
          <line class="cls-3" x1="259.41" y1="367.29" x2="258.85" y2="398.18"/>
          <line class="cls-3" x1="277.61" y1="368.57" x2="277.61" y2="398.89"/>
          <line class="cls-3" x1="293.73" y1="368.57" x2="295.04" y2="398.18"/>
          <line class="cls-3" x1="310.84" y1="367.29" x2="311.81" y2="398.18"/>
        </g>
      </g>
      <line class="cls-3" x1="25.02" y1="337.42" x2="474.98" y2="337.42"/>
    </g>
    <g>
      <g>
        <g>
          <path class="cls-15" d="m307.91,281.07c-24.3-24.64-70.18-41.82-139.58-32.82-69.39,9-88.51,38.71-88.51,38.71-21.4,29.47-23.89,65.38,3.15,77.19,18.97,8.28,96.27-2.4,112.56-1.75,16.29.65,38.93,8.63,44.96,17.92,6.03,9.28,15.96,9.28,17.27,3.11.08-.38.09-.79.03-1.24l.17.51c6.26,1.44,9.57-2.6,8.76-6.79-.06-.33-.21-.72-.41-1.14l.21.07c2.15.1,8.11-.24,8.51-6.91.03-.5-.02-1.02-.12-1.55l.51.18c1.21-.33,2.25-1.09,3.03-2.42,1.66-2.79,1.31-7.15-1.31-12.26,11.72-.52,22.65-2.58,30.76-7.27,16.84-9.73,24.3-38.91,0-63.56Z"/>
          <g>
            <path class="cls-3" d="m114.25,311.58s52.63-11.34,102.89,2.59c50.26,13.93,66.84,40.66,61.31,49.99-.78,1.32-1.82,2.08-3.03,2.42"/>
            <path class="cls-3" d="m256.46,347.25s19.06,12.54,18.57,20.69c-.4,6.66-6.36,7-8.51,6.91"/>
            <path class="cls-3" d="m248.8,354.58s16.96,16.36,17.92,21.34c.81,4.18-2.51,8.23-8.76,6.79"/>
            <path class="cls-3" d="m241.15,361.06s17.92,16.21,16.62,22.38-11.24,6.17-17.27-3.11c-6.03-9.29-28.67-17.27-44.96-17.92-16.29-.65-93.59,10.03-112.56,1.75-27.04-11.81-24.55-47.72-3.15-77.19,0,0,19.12-29.72,88.51-38.71,69.39-9,115.28,8.18,139.58,32.82,24.3,24.64,16.84,53.83,0,63.56-8.11,4.68-19.04,6.75-30.76,7.27"/>
          </g>
          <g>
            <line class="cls-19" x1="152.06" y1="356.1" x2="162.84" y2="343.77"/>
            <line class="cls-19" x1="171.27" y1="348.94" x2="177.05" y2="356.1"/>
            <line class="cls-19" x1="170.61" y1="334" x2="179.22" y2="324.61"/>
            <line class="cls-19" x1="194.52" y1="323.57" x2="186.25" y2="317.48"/>
            <line class="cls-19" x1="153.67" y1="323.57" x2="162.84" y2="332.9"/>
            <line class="cls-19" x1="123.44" y1="317.48" x2="114.25" y2="331.09"/>
            <line class="cls-19" x1="102.63" y1="295.31" x2="115.66" y2="299.8"/>
            <line class="cls-19" x1="121.75" y1="288" x2="126.71" y2="278.42"/>
            <line class="cls-19" x1="109.15" y1="271.4" x2="114.25" y2="279.49"/>
            <line class="cls-19" x1="124.23" y1="268.52" x2="132.78" y2="259.22"/>
            <line class="cls-19" x1="152.06" y1="280.74" x2="139.14" y2="271.4"/>
            <line class="cls-19" x1="152.06" y1="262.06" x2="160.88" y2="256.19"/>
            <line class="cls-19" x1="184.16" y1="274.44" x2="174.16" y2="262.06"/>
            <line class="cls-19" x1="223.83" y1="275.52" x2="230.56" y2="266.41"/>
            <line class="cls-19" x1="235.56" y1="253.66" x2="243.44" y2="260.01"/>
            <line class="cls-19" x1="245.26" y1="271.4" x2="255.32" y2="270.09"/>
            <line class="cls-19" x1="251.72" y1="252.07" x2="255.32" y2="258.15"/>
            <line class="cls-19" x1="266.84" y1="266.41" x2="276.17" y2="262.06"/>
            <line class="cls-19" x1="266.84" y1="277.26" x2="266.84" y2="289.1"/>
            <line class="cls-19" x1="275.04" y1="275.45" x2="288.22" y2="278.42"/>
          </g>
          <path class="cls-6" d="m214.51,313.46c-4.82-1.25-9.66-2.28-14.46-3.11-6.78,7.27-21.88,26.69-18.65,52.63,6.24-.45,11.2-.7,14.15-.58.05,0,.1,0,.15,0-.04-12.52,2.26-36.4,18.82-48.95Z"/>
        </g>
        <g>
          <path class="cls-15" d="m179.92,268.9c-48.68,3.91-60.79,43.7-49.05,45.72.69.12,1.32.16,1.91.12l.06-.02c-.25,2.31.41,4.31,2.53,5.63,1.04.65,2.06.98,3.07,1.03l.14-.43c0,.5.05.98.17,1.45,1.1,4.61,4.68,4.99,8.1,4.1l.12-.32c.67,4.37,5.86,6.05,10.17,4.06,5.65-2.61,12.3-9.25,26.73-14.03,14.53-4.82,31.66-4.23,61.38,8.53l42.97-32.57s-59.63-27.19-108.31-23.28Z"/>
          <g>
            <path class="cls-3" d="m288.22,292.18s-59.63-27.19-108.31-23.28-60.79,43.7-49.05,45.72c.69.12,1.32.16,1.91.12"/>
            <path class="cls-3" d="m147.53,293.06s-22.15,21.03-12.16,27.3c1.04.65,2.06.98,3.07,1.03"/>
            <path class="cls-3" d="m158.26,297.44c-5.85,4.27-21.5,16.61-19.51,24.97,1.1,4.61,4.68,4.99,8.1,4.1"/>
            <path class="cls-3" d="m166.49,303.86s-15.2,9.76-18.68,17.53c-3.48,7.77,3.69,11.47,9.34,8.86,5.65-2.61,12.3-9.25,26.73-14.03,14.53-4.82,31.66-4.23,61.38,8.53"/>
          </g>
          <path class="cls-3" d="m185.45,268.59c8.55,4.5,24.49,16.84,19.99,44.99,4.09.27,8.52.95,13.38,2.09,1.18-11.82.73-34.06-16.46-46.62-5.68-.46-11.35-.64-16.91-.46Z"/>
          <g>
            <line class="cls-19" x1="216.83" y1="275.52" x2="225.36" y2="281.82"/>
            <line class="cls-19" x1="222.91" y1="305.5" x2="229.7" y2="299.8"/>
            <line class="cls-19" x1="238.56" y1="293.19" x2="248.33" y2="297.43"/>
            <line class="cls-19" x1="240.12" y1="310.71" x2="241.83" y2="318.87"/>
            <line class="cls-19" x1="253.34" y1="307.22" x2="263.14" y2="314.79"/>
            <line class="cls-19" x1="265.75" y1="295.31" x2="273.9" y2="291.63"/>
            <line class="cls-19" x1="245.89" y1="287.6" x2="251.72" y2="281.82"/>
            <line class="cls-19" x1="256.46" y1="321.25" x2="260.32" y2="329.82"/>
          </g>
        </g>
      </g>
      <g>
        <path class="cls-15" d="m188.45,250.85s2.14,13.7-4.51,14.5c-6.65.8-22.89-3.54-20.49-19.07,2.39-15.53,36.18-36.98,57.28-28.66,21.09,8.31,23.62,26.69,22.49,38.42-1,10.38-7.12,17.56-22.02,12.24-14.9-5.32-32.74-17.42-32.74-17.42Z"/>
        <circle class="cls-6" cx="210.96" cy="247.86" r="29.4" transform="translate(-91.11 126.65) rotate(-27.73)"/>
        <path class="cls-15" d="m186.02,264.51c-11.34-1.17-11.96-14.74-9.8-23.11,4.06-15.72,26.17-27.01,41.89-22.95,12.35,3.19,24.31,14.76,22.77,27.21-4.91-3.01-11.39-8.18-13.89-14.43,0,0-12.32,16.44-35.79,10.49l-1.11,5.16s.33,9.78-.83,12.76c-1.73,4.41-3.24,4.88-3.24,4.88Z"/>
        <g>
          <path class="cls-15" d="m184.61,242.49c-1.01,3.9,1.34,7.87,5.24,8.88,3.9,1.01,7.87-1.34,8.88-5.24,1.01-3.9-1.34-7.87-5.24-8.88-3.9-1.01-7.87,1.34-8.88,5.24Z"/>
          <path class="cls-3" d="m196.68,245.61c.71-2.77-.95-5.59-3.72-6.31-2.77-.71-5.59.95-6.31,3.72-.71,2.77.95,5.59,3.72,6.31"/>
          <path class="cls-3" d="m198.96,244.23c-.03-3.21-2.21-6.13-5.47-6.98-3.9-1.01-7.87,1.34-8.88,5.24-1.01,3.9,1.34,7.87,5.24,8.88"/>
        </g>
        <circle class="cls-2" cx="199.79" cy="201.98" r="13.3"/>
        <g>
          <path class="cls-3" d="m188.45,250.85s2.14,13.7-4.51,14.5c-6.65.8-22.89-3.54-20.49-19.07,2.39-15.53,36.18-36.98,57.28-28.66,21.09,8.31,23.62,26.69,22.49,38.42-.77,7.97-4.55,14.05-13.01,14.04"/>
          <path class="cls-3" d="m240.89,245.66c-4.91-3.01-11.39-8.18-13.89-14.43,0,0-9.62,12.82-28.03,11.72"/>
          <path class="cls-3" d="m199.79,237.55s15.86-1.8,22.53-7.29"/>
          <path class="cls-3" d="m203.33,232.43s9.57-2.71,13.56-4.21"/>
        </g>
      </g>
      <g>
        <path class="cls-3" d="m215.47,246.6c-.12,1.94.96,3.58,2.42,3.67s2.74-1.4,2.87-3.34"/>
        <path class="cls-3" d="m232.56,247.61c-.25,1.57.51,3,1.69,3.18,1.18.19,2.35-.93,2.6-2.5"/>
        <polyline class="cls-3" points="227.57 242.34 230.81 251.32 224.97 251.21"/>
        <path class="cls-3" d="m230.34,258.93s-4.96-1.52-8.53-1.78"/>
      </g>
    </g>
    <g>
      <g>
        <g>
          <circle class="cls-9" cx="301.56" cy="152.33" r="54.2" transform="translate(-19.39 257.85) rotate(-45)"/>
          <circle class="cls-15" cx="301.56" cy="152.33" r="47.57" transform="translate(-32.5 101.87) rotate(-18.21)"/>
        </g>
        <g>
          <line class="cls-3" x1="315.03" y1="113.96" x2="313.24" y2="118.98"/>
          <line class="cls-3" x1="289.49" y1="185.55" x2="287.7" y2="190.57"/>
          <line class="cls-3" x1="262.89" y1="138.92" x2="268.4" y2="140.88"/>
          <line class="cls-3" x1="334.48" y1="164.45" x2="339.99" y2="166.42"/>
          <line class="cls-3" x1="293.67" y1="112" x2="294.84" y2="118.44"/>
          <line class="cls-3" x1="275.25" y1="121.68" x2="278.96" y2="126.11"/>
          <line class="cls-3" x1="261.61" y1="159.9" x2="267.41" y2="158.5"/>
          <line class="cls-3" x1="269.93" y1="178.57" x2="274.74" y2="174.81"/>
          <line class="cls-3" x1="308.8" y1="192.43" x2="307.45" y2="186.48"/>
          <line class="cls-3" x1="327.69" y1="183.47" x2="323.77" y2="178.61"/>
          <line class="cls-3" x1="341.33" y1="145.25" x2="334.68" y2="145.98"/>
          <line class="cls-3" x1="332.14" y1="127" x2="327.56" y2="130.11"/>
        </g>
        <g>
          <path class="cls-16" d="m307.63,154.5c-1.2,3.35-4.89,5.1-8.24,3.91-3.35-1.2-5.1-4.89-3.91-8.24,1.2-3.35,4.89-5.1,8.24-3.91,3.35,1.2,5.1,4.89,3.91,8.24Z"/>
          <polyline class="cls-5" points="329.85 138.92 302 153.07 302.88 130.11"/>
        </g>
      </g>
      <g>
        <g>
          <path class="cls-18" d="m389.17,168.55c-.96-3.37.25-5.28-4.95-13.11-5.2-7.83,4.25-11.73,8.72-3.29s-2.4,21.2-3.77,16.4Z"/>
          <path class="cls-18" d="m398.87,141.11c-1.33-2.49-2.82-10.65,2.05-11.09,6.51-.59,1.52,17.78-2.05,11.09Z"/>
          <g>
            <path class="cls-18" d="m394.73,288.88s-40.4-17.74-43.98-48.78c-2.84-24.6,18.26-42.01,27.14-48.18,1.2-.84,2.77.35,2.3,1.73-2.43,7.1-6.65,21.37-4.02,27.95,0,0,.33-18.25,13.03-31.03,9.39-9.45,13.78-21.58,15.3-29.46.5-2.61,3.76-3.54,5.58-1.61,9.33,9.89,28.56,34.18,28.17,65.96,0,0,3.76-8.05,3.96-16.08.06-2.36,2.93-3.49,4.63-1.84,5.87,5.72,14.36,16.3,14.23,29.54-.19,20.2-10.62,49.52-66.33,51.8Z"/>
            <path class="cls-13" d="m388.1,280.85s-21.46-21.62-4.1-49.42c0,0-.89,8.87,6.71,16.6,7.6,7.73,12.81,15.33,12.81,15.98,0,0-15.15-21.47-5.65-36.39,8.07-12.67,11.29-18.22,11.29-23.38,0,0,5.7,7.44,4.62,19.65s10.77,14.23,16.62,21.99c5.84,7.77,5.6,24.22-.97,32.47"/>
          </g>
        </g>
        <g>
          <polygon class="cls-9" points="330.55 374.64 313.42 414.46 368.56 414.46 372.77 374.64 330.55 374.64"/>
          <path class="cls-9" d="m426.32,383.21h-155.25c-8.79,0-14.01-7.13-11.66-15.92l24.79-92.52c2.36-8.79,11.39-15.92,20.19-15.92h155.25c8.79,0,14.01,7.13,11.66,15.92l-24.79,92.52c-2.36,8.79-11.39,15.92-20.19,15.92Z"/>
          <path class="cls-3" d="m382.8,295.09c-1.54,5.74-7.49,10.4-13.28,10.4s-9.25-4.65-7.71-10.4c1.54-5.74,7.49-10.4,13.28-10.4s9.25,4.65,7.71,10.4Z"/>
          <line class="cls-3" x1="291.01" y1="279.72" x2="267.8" y2="366.97"/>
        </g>
      </g>
      <g>
        <g>
          <path class="cls-4" d="m40.94,296.53c0,10.12,8.21,18.33,18.33,18.33s18.33-8.21,18.33-18.33-8.21-18.33-18.33-18.33-18.33,8.21-18.33,18.33Zm6.75,0c0-6.4,5.19-11.58,11.58-11.58s11.58,5.19,11.58,11.58-5.19,11.58-11.58,11.58-11.58-5.19-11.58-11.58Z"/>
          <rect class="cls-4" x="58.49" y="267.76" width="50.51" height="58.18" rx="10.06" ry="10.06" transform="translate(167.49 593.7) rotate(180)"/>
        </g>
        <g>
          <g>
            <path class="cls-14" d="m87.33,285.49s6.03,9.56,13.52,5.44c5.87-3.23-5.04-12.78-13.52-5.44Z"/>
            <path class="cls-5" d="m87.33,285.49s6.41.16,11.53,2.69"/>
          </g>
          <path class="cls-18" d="m83.56,315.93c-4.57.49-12.3-1.23-15.68-10.7-4.3-12.05,9.65-24,16.41-13.26,0,0,10.12-3.25,12.56,4.09,2.45,7.34-1.06,18.58-13.29,19.88Z"/>
          <path class="cls-5" d="m83.56,294.22s2.38-9.1,8.65-14.94"/>
        </g>
        <path class="cls-12" d="m59.25,218.81s9.25-14.97-1.69-20.92c-10.94-5.95-28.3-11.52-19.39-31.16s39.05-24.61,53.27-3.27c14.22,21.34,2.35,35.92-2.09,45.33-4.44,9.41-2.47,11.85,3.65,19.02,6.12,7.17,12.51,26.82-3.65,26.86-10.97.02-5.43-14.08-16.53-16.89-11.1-2.81-18.79-8.65-13.57-18.97Z"/>
      </g>
      <g>
        <g>
          <rect class="cls-1" x="51.73" y="352.13" width="122.11" height="26.34" rx="7.54" ry="7.54"/>
          <rect class="cls-15" x="62.67" y="359.43" width="66.28" height="11.73" rx="4.42" ry="4.42"/>
          <path class="cls-15" d="m165.93,365.29c0,2.77-2.45,5.01-5.47,5.01s-5.47-2.24-5.47-5.01,2.45-5.01,5.47-5.01,5.47,2.24,5.47,5.01Z"/>
        </g>
        <g>
          <path class="cls-10" d="m43,325.37h107.02c4.16,0,7.54,3.38,7.54,7.54v11.25c0,4.16-3.38,7.54-7.54,7.54H43c-4.16,0-7.54-3.38-7.54-7.54v-11.25c0-4.16,3.38-7.54,7.54-7.54Z"/>
          <rect class="cls-15" x="46.4" y="332.68" width="66.28" height="11.73" rx="4.41" ry="4.41"/>
          <path class="cls-15" d="m149.66,338.54c0,2.77-2.24,5.01-5.01,5.01s-5.01-2.24-5.01-5.01,2.24-5.01,5.01-5.01,5.01,2.24,5.01,5.01Z"/>
        </g>
      </g>
    </g>
    <g>
      <g>
        <polygon class="cls-7" points="428.16 270.55 422.9 298.43 427.44 300.08 425.92 302.94 454.44 302.94 461.06 270.55 428.16 270.55"/>
        <g>
          <line class="cls-11" x1="431.21" y1="276.14" x2="455.12" y2="276.14"/>
          <line class="cls-11" x1="429.43" y1="280.85" x2="453.34" y2="280.85"/>
          <line class="cls-11" x1="428.41" y1="285.56" x2="452.32" y2="285.56"/>
          <line class="cls-11" x1="427.44" y1="290.26" x2="451.35" y2="290.26"/>
          <line class="cls-11" x1="426.29" y1="295.65" x2="450.2" y2="295.65"/>
        </g>
        <line class="cls-6" x1="422.9" y1="298.43" x2="425.92" y2="302.94"/>
      </g>
      <g>
        <polygon class="cls-7" points="301.21 303.64 295.95 331.53 300.48 333.17 298.97 336.04 327.49 336.04 334.11 303.64 301.21 303.64"/>
        <g>
          <line class="cls-11" x1="304.26" y1="309.24" x2="328.17" y2="309.24"/>
          <line class="cls-11" x1="302.48" y1="313.95" x2="326.39" y2="313.95"/>
          <line class="cls-11" x1="301.46" y1="318.65" x2="325.37" y2="318.65"/>
          <line class="cls-11" x1="309.61" y1="323.36" x2="324.4" y2="323.36"/>
        </g>
        <line class="cls-6" x1="295.95" y1="331.53" x2="298.97" y2="336.04"/>
      </g>
      <g>
        <polygon class="cls-7" points="384.21 325.87 378.03 358.26 410.49 358.26 417.11 325.87 384.21 325.87"/>
        <g>
          <line class="cls-11" x1="387.26" y1="331.46" x2="411.17" y2="331.46"/>
          <line class="cls-11" x1="385.48" y1="336.17" x2="409.39" y2="336.17"/>
          <line class="cls-11" x1="384.46" y1="340.87" x2="408.37" y2="340.87"/>
          <line class="cls-11" x1="392.61" y1="345.58" x2="407.4" y2="345.58"/>
        </g>
      </g>
    </g>
    <g>
      <path class="cls-12" d="m35.46,79.81s25.28-8.67,45.18,6.53c19.9,15.2,12.28,46.73,1.1,39.76-11.18-6.97,10.79-21.89,24.89-16.71,8.81,3.24,15.73,13.27,16.96,20.13"/>
      <path class="cls-12" d="m413.75,100.9s8.87-27.73,24.63-26.28c15.31,1.41,6.95,15.53-.53,9.56-8.29-6.62-13.29-18.6-1.75-34.43"/>
      <path class="cls-12" d="m444.03,169.84s30.47,11.98,23.71,18.89c-6.76,6.91-15.17-9.03.4-16.32"/>
      <line class="cls-3" x1="413.52" y1="402.49" x2="417.11" y2="426.38"/>
      <line class="cls-3" x1="424.41" y1="394.55" x2="453.34" y2="411.02"/>
      <line class="cls-3" x1="141.28" y1="96.03" x2="135.05" y2="76.66"/>
      <line class="cls-3" x1="434.58" y1="136.29" x2="453.34" y2="127.82"/>
    </g>
  </g>
</svg>