<svg width="29" height="29" viewBox="0 0 29 29" fill="none" xmlns="http://www.w3.org/2000/svg">
<path d="M26.7851 0.154062C26.9088 0.23678 27.0102 0.348669 27.0803 0.479852C27.1505 0.611035 27.1873 0.757477 27.1875 0.90625V14.5C27.1875 14.681 27.1332 14.8578 27.0318 15.0077C26.9304 15.1576 26.7864 15.2737 26.6184 15.341L26.6129 15.3428L26.6021 15.3483L26.5604 15.3646C26.3221 15.4594 26.0823 15.5501 25.8408 15.6364C25.3623 15.8086 24.6971 16.0406 23.9431 16.2708C22.4641 16.7276 20.5374 17.2188 19.0312 17.2188C17.4961 17.2188 16.2255 16.7113 15.1199 16.2672L15.0691 16.2491C13.92 15.7869 12.9412 15.4062 11.7812 15.4062C10.5125 15.4062 8.81238 15.8231 7.36419 16.2708C6.71589 16.4732 6.07341 16.6938 5.4375 16.9324V28.0938C5.4375 28.3341 5.34202 28.5646 5.17207 28.7346C5.00211 28.9045 4.7716 29 4.53125 29C4.2909 29 4.06039 28.9045 3.89043 28.7346C3.72048 28.5646 3.625 28.3341 3.625 28.0938V0.90625C3.625 0.665898 3.72048 0.435389 3.89043 0.265435C4.06039 0.0954797 4.2909 0 4.53125 0C4.7716 0 5.00211 0.0954797 5.17207 0.265435C5.34202 0.435389 5.4375 0.665898 5.4375 0.90625V1.41737C5.84713 1.27419 6.3365 1.10925 6.86937 0.946125C8.34837 0.493 10.2769 0 11.7812 0C13.3038 0 14.5435 0.502062 15.6256 0.940687L15.7035 0.973312C16.8309 1.42825 17.8132 1.8125 19.0312 1.8125C20.3 1.8125 22.0001 1.39562 23.4483 0.947937C24.2734 0.689603 25.0889 0.401836 25.8934 0.0851875L25.9278 0.0725L25.9351 0.068875H25.9369M25.375 2.21306C24.9762 2.35444 24.505 2.51575 23.9866 2.67525C22.5185 3.132 20.5936 3.62319 19.0312 3.62319C17.4254 3.62319 16.1458 3.10481 15.0383 2.65531L15.0238 2.64987C13.8874 2.19313 12.9394 1.8125 11.7812 1.8125C10.5687 1.8125 8.87038 2.22756 7.40406 2.67887C6.74262 2.88268 6.08685 3.10449 5.4375 3.34406V15.0039C5.83625 14.8625 6.3075 14.7012 6.82588 14.5417C8.294 14.0831 10.2189 13.5938 11.7812 13.5938C13.3164 13.5938 14.587 14.1012 15.6926 14.5453L15.7434 14.5634C16.8925 15.0256 17.8713 15.4062 19.0312 15.4062C20.242 15.4062 21.9421 14.9912 23.4084 14.5399C24.0699 14.3361 24.7256 14.1143 25.375 13.8747V2.21487V2.21306Z" fill="black"/>
</svg>
