<svg width="26" height="26" viewBox="0 0 26 26" fill="none" xmlns="http://www.w3.org/2000/svg">
<path d="M24 24L18.6919 18.6919M18.6919 18.6919C19.5999 17.784 20.3201 16.7061 20.8115 15.5198C21.3029 14.3335 21.5558 13.062 21.5558 11.7779C21.5558 10.4939 21.3029 9.22238 20.8115 8.03607C20.3202 6.84976 19.5999 5.77185 18.6919 4.86389C17.784 3.95592 16.7061 3.23569 15.5198 2.7443C14.3335 2.25291 13.062 2 11.7779 2C10.4939 2 9.22238 2.25291 8.03607 2.7443C6.84976 3.23569 5.77185 3.95592 4.86389 4.86389C3.03017 6.6976 2 9.18465 2 11.7779C2 14.3712 3.03017 16.8582 4.86389 18.6919C6.6976 20.5257 9.18465 21.5558 11.7779 21.5558C14.3712 21.5558 16.8582 20.5257 18.6919 18.6919Z" stroke="black" stroke-width="3.75" stroke-linecap="round" stroke-linejoin="round"/>
</svg>
